<svg id="Layer_1" data-name="Layer 1" xmlns="http://www.w3.org/2000/svg" viewBox="0 0 405.72 106.84"><title>logo-small</title><path d="M52.43,20.64v6.23H48.28V57h4.23V63.4H31V57h4V35.28L23.74,60.06,12.22,40.13V57.07h3.94V63.4h-15V57.11H5.32V26.87H1.14V20.64H17.59l9.19,16,7.62-16h18ZM55.11,27h4.42V57H55.28v6.39H76.77V57H72.55V26.87h4.32V20.64H55.11Zm169.44-6.31V27H229V57h-4.25v6.39h21.49V57H242V26.87h4.32V20.64Zm-58.6-1.57c10.54,0,18.72,10.26,18.72,22.92s-8.18,22.23-18.72,22.23S147.32,54.65,147.32,42s8.09-22.92,18.63-22.92M166,56.16c2.26,0,5.11-4.59,5.11-14.56,0-9.27-2.86-14.3-5.11-14.3S161.1,33,161.1,41.6c0,9.36,2.68,14.56,4.94,14.56m40.9-29.29h4.25V39.72l-11-19.08H185.08v6.23H189V57h-3.92v6.5h15.18V57h-4.42V39.72l13,23.74H218V26.87h4V20.64H206.94Zm-61.74,20.2s-1.62-5.1-8.33-7.77c0,0-10.7-4.23-11-8.4,0,0-.44-4.66,5-4.29,0,0,6.22.13,6.34,6.41V34h6.72V20.58h-6.53v2.25c-2.69-2.83-7.21-3.6-9.32-3.66h-.57a13.68,13.68,0,0,0-8.4,2.73s-7.84,5.1-4.91,14.37c0,0,1.24,4.85,7.15,7.9,0,0,5.91,3.3,8,4.1,0,0,6.16,2.86,2.8,6.78,0,0-2.92,3-7.77-.81a12.67,12.67,0,0,1-4.6-6.34h-5.35V63.37h6.22V61.19s9.7,7,19.1,1.18c0,0,9.51-5.66,5.47-15.3m-34.83,0S108.75,42,102,39.3c0,0-10.7-4.23-11-8.4,0,0-.44-4.66,5-4.29,0,0,6.22.13,6.35,6.41V34h6.72V20.58h-6.53v2.25c-2.69-2.83-7.21-3.6-9.32-3.66h-.57a13.69,13.69,0,0,0-8.4,2.73S76.4,27,79.33,36.25c0,0,1.24,4.85,7.15,7.9,0,0,5.91,3.3,8,4.1,0,0,6.16,2.86,2.8,6.78,0,0-2.92,3-7.77-.81a12.66,12.66,0,0,1-4.6-6.34H79.58V63.37H85.8V61.19s9.7,7,19.09,1.18c0,0,9.52-5.66,5.47-15.3M279.75,22.77c10.12,0,18.25,8.71,18.25,19.41,0,10.54-8.13,19.17-18.25,19.17s-18.25-8.63-18.25-19.17c0-10.7,8.21-19.41,18.25-19.41m0,41.65c11.78,0,21.4-10,21.4-22.23,0-12.44-9.62-22.57-21.4-22.57a20.72,20.72,0,0,0-18.25,11.45V1.7h-3.07V63.43h3.07V53.14a20.72,20.72,0,0,0,18.25,11.28m46.71-41.65c10,0,18.25,8.71,18.25,19.41,0,10.54-8.21,19.17-18.25,19.17S308.2,52.72,308.2,42.18c0-10.7,8.21-19.41,18.25-19.41m21.32-2.08h-3.07V31.07a20.53,20.53,0,0,0-18.25-11.45c-11.78,0-21.32,10.12-21.32,22.57,0,12.28,9.54,22.23,21.32,22.23a20.52,20.52,0,0,0,18.25-11.28V63.43h3.07Zm10.53,0h-3.07V63.43h3.07Zm27.23,2.08c10,0,18.25,8.71,18.25,19.41,0,10.54-8.21,19.17-18.25,19.17s-18.25-8.63-18.25-19.17c0-10.7,8.21-19.41,18.25-19.41m21.32-2.08h-3.07V31.07a20.53,20.53,0,0,0-18.25-11.45c-11.78,0-21.32,10.12-21.32,22.57,0,12.28,9.54,22.23,21.32,22.23a20.52,20.52,0,0,0,18.25-11.28V63.43h3.07Zm-51.62-19V8h3.08V1.7ZM311.55,104.31a6.81,6.81,0,0,0,4.66,1.91c1.6,0,2.61-.73,2.61-1.84v0c0-1-.59-1.62-3.33-2.24-3.14-.75-4.91-1.68-4.91-4.38v0c0-2.51,2.11-4.25,5-4.25A8.2,8.2,0,0,1,321,95.26l-1.39,1.95a6.73,6.73,0,0,0-4-1.51c-1.52,0-2.4.78-2.4,1.74v0c0,1.13.67,1.63,3.5,2.31,3.12.75,4.75,1.87,4.75,4.29v0c0,2.75-2.17,4.38-5.27,4.38a9.11,9.11,0,0,1-6.15-2.35l1.56-1.84M306,95.93H297.7v3.82h7.4V102h-7.4V106h8.45v2.31h-11V93.62H306Zm-28.7,5a7.44,7.44,0,0,1,7.61-7.59,7.71,7.71,0,0,1,5.78,2.29l-1.66,1.91a5.89,5.89,0,0,0-4.13-1.82,4.94,4.94,0,0,0-4.87,5.17v0a5,5,0,0,0,4.87,5.22,5.81,5.81,0,0,0,4.24-1.9l1.66,1.67a7.63,7.63,0,0,1-6,2.6,7.39,7.39,0,0,1-7.5-7.54v0M270,103.77V93.62h2.55v14.67h-2.17L262.2,97.86v10.44h-2.55V93.62h2.4Zm-41.75,2.17h2.91a4.8,4.8,0,0,0,5.12-4.94v0a4.83,4.83,0,0,0-5.12-5h-2.91Zm2.91-12.32c4.64,0,7.84,3.16,7.84,7.29v0c0,4.13-3.2,7.34-7.84,7.34h-5.5V93.62h5.5M220,108.29h-2.59V93.62H220Zm-17.31-4a6.81,6.81,0,0,0,4.66,1.91c1.6,0,2.61-.73,2.61-1.84v0c0-1-.59-1.62-3.33-2.24-3.14-.75-4.91-1.68-4.91-4.38v0c0-2.51,2.11-4.25,5-4.25a8.2,8.2,0,0,1,5.35,1.84l-1.39,1.95a6.72,6.72,0,0,0-4-1.51c-1.52,0-2.4.78-2.4,1.74v0c0,1.13.68,1.63,3.5,2.31,3.12.75,4.74,1.87,4.74,4.29v0c0,2.75-2.17,4.38-5.27,4.38a9.11,9.11,0,0,1-6.15-2.35l1.56-1.84m-5.51-8.38h-8.35v3.82h7.4V102h-7.4V106h8.45v2.31h-11V93.62h10.94Zm-25.31,0v4.92h3.79c1.85,0,3-1,3-2.45v0c0-1.57-1.14-2.43-3.06-2.43Zm4-2.35a6,6,0,0,1,4.26,1.47,4.42,4.42,0,0,1,1.22,3.16v0a4.41,4.41,0,0,1-3.52,4.44l4,5.55h-3.06l-3.62-5.12h-3.25v5.12h-2.59V93.62h6.58m-20.22,14.67h-2.59V93.62h2.59Zm-15.5-7.73,4.49-6.93h2.76v14.67H144.8V97.77l-4.66,6.92h-.08l-4.62-6.87v10.48h-2.55V93.62h2.76Zm-16.51,1.91-2.55-5.87-2.53,5.87Zm-1.31-8.95,6.49,14.77h-2.74l-1.5-3.54h-7l-1.52,3.54h-2.66l6.49-14.77Zm-13,14.77h-2.59V93.62h2.59Zm-15.5-7.73,4.49-6.93h2.76v14.67H98.49V97.77l-4.66,6.92h-.08l-4.62-6.87v10.48H86.58V93.62h2.76Zm149.93-6.93H254.7v2.3h-8.35v3.82h7.4V102h-7.4V106h8.45v2.31h-11Z" transform="translate(-1.14 -1.7)" style="fill:#045aa6"/></svg>